<svg width="589" height="97" viewBox="0 0 589 97" fill="none" xmlns="http://www.w3.org/2000/svg">
<path d="M36.8753 4.19087H55.9713L89.3273 92.9749H70.8513L63.5353 71.7709H29.3113L21.9953 92.9749H3.51925L36.8753 4.19087ZM58.0793 56.3949L50.1433 34.1989L46.9193 23.4109H45.9273L42.7033 34.1989L34.7672 56.3949H58.0793ZM99.721 4.19087H119.189L154.901 63.7109H155.893L154.901 46.5989V4.19087H171.517V92.9749H153.909L116.213 30.1069H115.221L116.213 47.2189V92.9749H99.721V4.19087ZM189.33 4.19087H208.798L244.51 63.7109H245.502L244.51 46.5989V4.19087H261.126V92.9749H243.518L205.822 30.1069H204.83L205.822 47.2189V92.9749H189.33V4.19087ZM319.765 94.9589C313.151 94.9589 306.993 93.7602 301.289 91.3629C295.667 88.9655 290.79 85.7002 286.657 81.5669C282.523 77.3509 279.258 72.4322 276.861 66.8109C274.546 61.1069 273.389 55.0309 273.389 48.5829C273.389 42.1349 274.546 36.1002 276.861 30.4789C279.258 24.7749 282.523 19.8562 286.657 15.7229C290.79 11.5069 295.667 8.20021 301.289 5.80288C306.993 3.40554 313.151 2.20687 319.765 2.20687C326.378 2.20687 332.495 3.40554 338.117 5.80288C343.821 8.20021 348.739 11.5069 352.873 15.7229C357.006 19.8562 360.23 24.7749 362.545 30.4789C364.942 36.1002 366.141 42.1349 366.141 48.5829C366.141 55.0309 364.942 61.1069 362.545 66.8109C360.23 72.4322 357.006 77.3509 352.873 81.5669C348.739 85.7002 343.821 88.9655 338.117 91.3629C332.495 93.7602 326.378 94.9589 319.765 94.9589ZM319.765 79.0869C323.898 79.0869 327.742 78.3429 331.297 76.8549C334.934 75.3669 338.075 73.3002 340.721 70.6549C343.449 68.0095 345.557 64.8269 347.045 61.1069C348.615 57.3042 349.401 53.1295 349.401 48.5829C349.401 44.0362 348.615 39.9029 347.045 36.1829C345.557 32.3802 343.449 29.1562 340.721 26.5109C338.075 23.8655 334.934 21.7989 331.297 20.3109C327.742 18.8229 323.898 18.0789 319.765 18.0789C315.631 18.0789 311.746 18.8229 308.109 20.3109C304.554 21.7989 301.413 23.8655 298.685 26.5109C296.039 29.1562 293.931 32.3802 292.361 36.1829C290.873 39.9029 290.129 44.0362 290.129 48.5829C290.129 53.1295 290.873 57.3042 292.361 61.1069C293.931 64.8269 296.039 68.0095 298.685 70.6549C301.413 73.3002 304.554 75.3669 308.109 76.8549C311.746 78.3429 315.631 79.0869 319.765 79.0869ZM403.184 4.19087H422.28L455.636 92.9749H437.16L429.844 71.7709H395.62L388.304 92.9749H369.828L403.184 4.19087ZM424.388 56.3949L416.452 34.1989L413.228 23.4109H412.236L409.012 34.1989L401.076 56.3949H424.388ZM476.764 92.9749V20.0629H451.964V4.19087H518.304V20.0629H493.504V92.9749H476.764ZM546.949 20.0629V40.6469H582.537V56.5189H546.949V77.1029H586.505V92.9749H530.209V4.19087H586.505V20.0629H546.949Z" fill="white"/>
<path d="M36.8753 4.19087V2.19087H35.4902L35.003 3.48748L36.8753 4.19087ZM55.9713 4.19087L57.8435 3.48748L57.3563 2.19087H55.9713V4.19087ZM89.3273 92.9749V94.9749H92.2151L91.1995 92.2715L89.3273 92.9749ZM70.8513 92.9749L68.9606 93.6272L69.4256 94.9749H70.8513V92.9749ZM63.5353 71.7709L65.4259 71.1186L64.9609 69.7709H63.5353V71.7709ZM29.3113 71.7709V69.7709H27.8856L27.4206 71.1186L29.3113 71.7709ZM21.9953 92.9749V94.9749H23.4209L23.8859 93.6272L21.9953 92.9749ZM3.51925 92.9749L1.64702 92.2715L0.631362 94.9749H3.51925V92.9749ZM58.0793 56.3949V58.3949H60.9183L59.9625 55.7215L58.0793 56.3949ZM50.1433 34.1989L48.227 34.7715L48.2422 34.8223L48.26 34.8722L50.1433 34.1989ZM46.9193 23.4109L48.8355 22.8382L48.409 21.4109H46.9193V23.4109ZM45.9273 23.4109V21.4109H44.4375L44.011 22.8382L45.9273 23.4109ZM42.7033 34.1989L44.5865 34.8722L44.6043 34.8223L44.6195 34.7715L42.7033 34.1989ZM34.7672 56.3949L32.884 55.7215L31.9282 58.3949H34.7672V56.3949ZM36.8753 6.19087H55.9713V2.19087H36.8753V6.19087ZM54.099 4.89427L87.455 93.6783L91.1995 92.2715L57.8435 3.48748L54.099 4.89427ZM89.3273 90.9749H70.8513V94.9749H89.3273V90.9749ZM72.7419 92.3226L65.4259 71.1186L61.6446 72.4232L68.9606 93.6272L72.7419 92.3226ZM63.5353 69.7709H29.3113V73.7709H63.5353V69.7709ZM27.4206 71.1186L20.1046 92.3226L23.8859 93.6272L31.2019 72.4232L27.4206 71.1186ZM21.9953 90.9749H3.51925V94.9749H21.9953V90.9749ZM5.39148 93.6783L38.7475 4.89427L35.003 3.48748L1.64702 92.2715L5.39148 93.6783ZM59.9625 55.7215L52.0265 33.5255L48.26 34.8722L56.196 57.0682L59.9625 55.7215ZM52.0595 33.6262L48.8355 22.8382L45.003 23.9835L48.227 34.7715L52.0595 33.6262ZM46.9193 21.4109H45.9273V25.4109H46.9193V21.4109ZM44.011 22.8382L40.787 33.6262L44.6195 34.7715L47.8435 23.9835L44.011 22.8382ZM40.82 33.5255L32.884 55.7215L36.6505 57.0682L44.5865 34.8722L40.82 33.5255ZM34.7672 58.3949H58.0793V54.3949H34.7672V58.3949ZM99.721 4.19087V2.19087H97.721V4.19087H99.721ZM119.189 4.19087L120.904 3.16188L120.321 2.19087H119.189V4.19087ZM154.901 63.7109L153.186 64.7399L153.769 65.7109H154.901V63.7109ZM155.893 63.7109V65.7109H158.012L157.89 63.5951L155.893 63.7109ZM154.901 46.5989H152.901V46.6568L152.904 46.7146L154.901 46.5989ZM154.901 4.19087V2.19087H152.901V4.19087H154.901ZM171.517 4.19087H173.517V2.19087H171.517V4.19087ZM171.517 92.9749V94.9749H173.517V92.9749H171.517ZM153.909 92.9749L152.194 94.0034L152.776 94.9749H153.909V92.9749ZM116.213 30.1069L117.928 29.0784L117.346 28.1069H116.213V30.1069ZM115.221 30.1069V28.1069H113.102L113.224 30.2226L115.221 30.1069ZM116.213 47.2189H118.213V47.161L118.21 47.1031L116.213 47.2189ZM116.213 92.9749V94.9749H118.213V92.9749H116.213ZM99.721 92.9749H97.721V94.9749H99.721V92.9749ZM99.721 6.19087H119.189V2.19087H99.721V6.19087ZM117.474 5.21987L153.186 64.7399L156.616 62.6819L120.904 3.16188L117.474 5.21987ZM154.901 65.7109H155.893V61.7109H154.901V65.7109ZM157.89 63.5951L156.898 46.4831L152.904 46.7146L153.896 63.8266L157.89 63.5951ZM156.901 46.5989V4.19087H152.901V46.5989H156.901ZM154.901 6.19087H171.517V2.19087H154.901V6.19087ZM169.517 4.19087V92.9749H173.517V4.19087H169.517ZM171.517 90.9749H153.909V94.9749H171.517V90.9749ZM155.624 91.9464L117.928 29.0784L114.498 31.1354L152.194 94.0034L155.624 91.9464ZM116.213 28.1069H115.221V32.1069H116.213V28.1069ZM113.224 30.2226L114.216 47.3346L118.21 47.1031L117.218 29.9911L113.224 30.2226ZM114.213 47.2189V92.9749H118.213V47.2189H114.213ZM116.213 90.9749H99.721V94.9749H116.213V90.9749ZM101.721 92.9749V4.19087H97.721V92.9749H101.721ZM189.33 4.19087V2.19087H187.33V4.19087H189.33ZM208.798 4.19087L210.513 3.16188L209.931 2.19087H208.798V4.19087ZM244.51 63.7109L242.795 64.7399L243.378 65.7109H244.51V63.7109ZM245.502 63.7109V65.7109H247.622L247.499 63.5951L245.502 63.7109ZM244.51 46.5989H242.51V46.6568L242.514 46.7146L244.51 46.5989ZM244.51 4.19087V2.19087H242.51V4.19087H244.51ZM261.126 4.19087H263.126V2.19087H261.126V4.19087ZM261.126 92.9749V94.9749H263.126V92.9749H261.126ZM243.518 92.9749L241.803 94.0034L242.386 94.9749H243.518V92.9749ZM205.822 30.1069L207.538 29.0784L206.955 28.1069H205.822V30.1069ZM204.83 30.1069V28.1069H202.711L202.834 30.2226L204.83 30.1069ZM205.822 47.2189H207.822V47.161L207.819 47.1031L205.822 47.2189ZM205.822 92.9749V94.9749H207.822V92.9749H205.822ZM189.33 92.9749H187.33V94.9749H189.33V92.9749ZM189.33 6.19087H208.798V2.19087H189.33V6.19087ZM207.083 5.21987L242.795 64.7399L246.225 62.6819L210.513 3.16188L207.083 5.21987ZM244.51 65.7109H245.502V61.7109H244.51V65.7109ZM247.499 63.5951L246.507 46.4831L242.514 46.7146L243.506 63.8266L247.499 63.5951ZM246.51 46.5989V4.19087H242.51V46.5989H246.51ZM244.51 6.19087H261.126V2.19087H244.51V6.19087ZM259.126 4.19087V92.9749H263.126V4.19087H259.126ZM261.126 90.9749H243.518V94.9749H261.126V90.9749ZM245.234 91.9464L207.538 29.0784L204.107 31.1354L241.803 94.0034L245.234 91.9464ZM205.822 28.1069H204.83V32.1069H205.822V28.1069ZM202.834 30.2226L203.826 47.3346L207.819 47.1031L206.827 29.9911L202.834 30.2226ZM203.822 47.2189V92.9749H207.822V47.2189H203.822ZM205.822 90.9749H189.33V94.9749H205.822V90.9749ZM191.33 92.9749V4.19087H187.33V92.9749H191.33ZM301.289 91.3629L300.504 93.2026L300.514 93.2066L301.289 91.3629ZM286.657 81.5669L285.229 82.967L285.236 82.9741L285.243 82.9811L286.657 81.5669ZM276.861 66.8109L275.008 67.5629L275.014 67.5792L275.021 67.5954L276.861 66.8109ZM276.861 30.4789L275.017 29.704L275.014 29.7107L275.011 29.7174L276.861 30.4789ZM286.657 15.7229L288.071 17.1371L288.078 17.1301L288.085 17.123L286.657 15.7229ZM301.289 5.80288L300.514 3.95908L300.504 3.96319L301.289 5.80288ZM338.117 5.80288L337.332 7.64259L337.342 7.64665L338.117 5.80288ZM352.873 15.7229L351.445 17.123L351.452 17.1301L351.459 17.1371L352.873 15.7229ZM362.545 30.4789L360.692 31.2309L360.698 31.2472L360.705 31.2634L362.545 30.4789ZM362.545 66.8109L360.701 66.036L360.698 66.0427L360.695 66.0494L362.545 66.8109ZM352.873 81.5669L354.287 82.9811L354.294 82.9741L354.301 82.967L352.873 81.5669ZM338.117 91.3629L337.342 89.5191L337.332 89.5232L338.117 91.3629ZM331.297 76.8549L330.54 75.0038L330.532 75.0069L330.525 75.01L331.297 76.8549ZM340.721 70.6549L339.328 69.2191L339.317 69.2298L339.307 69.2407L340.721 70.6549ZM347.045 61.1069L345.196 60.3434L345.192 60.3537L345.188 60.3641L347.045 61.1069ZM347.045 36.1829L345.182 36.9117L345.192 36.9364L345.202 36.9608L347.045 36.1829ZM340.721 26.5109L339.307 27.9251L339.317 27.936L339.328 27.9467L340.721 26.5109ZM331.297 20.3109L330.525 22.1558L330.532 22.1589L330.54 22.162L331.297 20.3109ZM308.109 20.3109L307.352 18.4598L307.344 18.4629L307.337 18.466L308.109 20.3109ZM298.685 26.5109L297.292 25.0751L297.281 25.0858L297.271 25.0967L298.685 26.5109ZM292.361 36.1829L290.512 35.4194L290.508 35.4297L290.504 35.4401L292.361 36.1829ZM292.361 61.1069L290.498 61.8357L290.508 61.8604L290.518 61.8848L292.361 61.1069ZM298.685 70.6549L297.271 72.0691L297.281 72.08L297.292 72.0907L298.685 70.6549ZM308.109 76.8549L307.337 78.6998L307.344 78.7029L307.352 78.706L308.109 76.8549ZM319.765 92.9589C313.399 92.9589 307.506 91.8064 302.064 89.5191L300.514 93.2066C306.48 95.7141 312.904 96.9589 319.765 96.9589V92.9589ZM302.073 89.5232C296.676 87.2215 292.015 84.0971 288.071 80.1527L285.243 82.9811C289.565 87.3034 294.659 90.7096 300.504 93.2026L302.073 89.5232ZM288.085 80.1667C284.132 76.1348 281.004 71.4268 278.7 66.0263L275.021 67.5954C277.513 73.4376 280.915 78.567 285.229 82.967L288.085 80.1667ZM278.714 66.0588C276.501 60.605 275.389 54.7855 275.389 48.5829H271.389C271.389 55.2762 272.591 61.6088 275.008 67.5629L278.714 66.0588ZM275.389 48.5829C275.389 42.38 276.501 36.6057 278.71 31.2404L275.011 29.7174C272.591 35.5947 271.389 41.8897 271.389 48.5829H275.389ZM278.705 31.2538C281.007 25.7745 284.131 21.0766 288.071 17.1371L285.243 14.3087C280.915 18.6358 277.509 23.7752 275.017 29.704L278.705 31.2538ZM288.085 17.123C292.028 13.1009 296.685 9.94068 302.073 7.64256L300.504 3.96319C294.65 6.45973 289.552 9.91284 285.229 14.3227L288.085 17.123ZM302.064 7.64665C307.506 5.35938 313.399 4.20687 319.765 4.20687V0.20687C312.904 0.20687 306.48 1.4517 300.514 3.9591L302.064 7.64665ZM319.765 4.20687C326.131 4.20687 331.979 5.35945 337.332 7.64256L338.901 3.96319C333.012 1.45163 326.625 0.20687 319.765 0.20687V4.20687ZM337.342 7.64665C342.813 9.94601 347.506 13.1059 351.445 17.123L354.301 14.3227C349.973 9.90786 344.829 6.4544 338.892 3.9591L337.342 7.64665ZM351.459 17.1371C355.393 21.0713 358.472 25.7614 360.692 31.2309L364.398 29.7268C361.988 23.7884 358.619 18.6411 354.287 14.3087L351.459 17.1371ZM360.705 31.2634C362.991 36.6232 364.141 42.3894 364.141 48.5829H368.141C368.141 41.8803 366.893 35.5772 364.384 29.6943L360.705 31.2634ZM364.141 48.5829C364.141 54.7762 362.991 60.5876 360.701 66.036L364.389 67.5858C366.893 61.6261 368.141 55.2856 368.141 48.5829H364.141ZM360.695 66.0494C358.476 71.4399 355.392 76.14 351.445 80.1667L354.301 82.967C358.62 78.5617 361.984 73.4245 364.394 67.5724L360.695 66.0494ZM351.459 80.1527C347.519 84.0922 342.821 87.2162 337.342 89.5191L338.892 93.2066C344.82 90.7149 349.96 87.3082 354.287 82.9811L351.459 80.1527ZM337.332 89.5232C331.979 91.8063 326.131 92.9589 319.765 92.9589V96.9589C326.625 96.9589 333.012 95.7141 338.901 93.2026L337.332 89.5232ZM319.765 81.0869C324.144 81.0869 328.252 80.2974 332.069 78.6998L330.525 75.01C327.232 76.3883 323.652 77.0869 319.765 77.0869V81.0869ZM332.054 78.706C335.925 77.1226 339.292 74.9116 342.135 72.0691L339.307 69.2407C336.858 71.6888 333.944 73.6112 330.54 75.0038L332.054 78.706ZM342.113 72.0907C345.054 69.239 347.315 65.8163 348.902 61.8497L345.188 60.3641C343.798 63.8375 341.844 66.7801 339.328 69.2191L342.113 72.0907ZM348.893 61.8704C350.574 57.8013 351.401 53.3639 351.401 48.5829H347.401C347.401 52.8952 346.657 56.8071 345.196 60.3434L348.893 61.8704ZM351.401 48.5829C351.401 43.8026 350.574 39.4003 348.887 35.4049L345.202 36.9608C346.657 40.4055 347.401 44.2698 347.401 48.5829H351.401ZM348.907 35.4541C347.323 31.405 345.062 27.9343 342.113 25.0751L339.328 27.9467C341.836 30.3781 343.791 33.3554 345.182 36.9117L348.907 35.4541ZM342.135 25.0967C339.292 22.2541 335.925 20.0432 332.054 18.4598L330.54 22.162C333.944 23.5546 336.858 25.477 339.307 27.9251L342.135 25.0967ZM332.069 18.466C328.252 16.8683 324.144 16.0789 319.765 16.0789V20.0789C323.652 20.0789 327.232 20.7774 330.525 22.1558L332.069 18.466ZM319.765 16.0789C315.385 16.0789 311.242 16.8684 307.352 18.4598L308.866 22.162C312.251 20.7773 315.877 20.0789 319.765 20.0789V16.0789ZM307.337 18.466C303.555 20.049 300.202 22.2534 297.292 25.0751L300.077 27.9467C302.623 25.4777 305.553 23.5487 308.881 22.1558L307.337 18.466ZM297.271 25.0967C294.421 27.946 292.173 31.3977 290.512 35.4194L294.209 36.9464C295.69 33.3627 297.658 30.3664 300.099 27.9251L297.271 25.0967ZM290.504 35.4401C288.909 39.426 288.129 43.8158 288.129 48.5829H292.129C292.129 44.2566 292.836 40.3797 294.218 36.9257L290.504 35.4401ZM288.129 48.5829C288.129 53.3507 288.91 57.7759 290.498 61.8357L294.223 60.3781C292.836 56.8326 292.129 52.9084 292.129 48.5829H288.129ZM290.518 61.8848C292.181 65.8235 294.429 69.2272 297.271 72.0691L300.099 69.2407C297.65 66.7919 295.682 63.8302 294.203 60.3289L290.518 61.8848ZM297.292 72.0907C300.202 74.9124 303.555 77.1167 307.337 78.6998L308.881 75.01C305.553 73.6171 302.623 71.688 300.077 69.2191L297.292 72.0907ZM307.352 78.706C311.242 80.2973 315.385 81.0869 319.765 81.0869V77.0869C315.877 77.0869 312.251 76.3884 308.866 75.0038L307.352 78.706ZM403.184 4.19087V2.19087H401.799L401.312 3.48748L403.184 4.19087ZM422.28 4.19087L424.152 3.48748L423.665 2.19087H422.28V4.19087ZM455.636 92.9749V94.9749H458.524L457.508 92.2715L455.636 92.9749ZM437.16 92.9749L435.269 93.6272L435.734 94.9749H437.16V92.9749ZM429.844 71.7709L431.734 71.1186L431.269 69.7709H429.844V71.7709ZM395.62 71.7709V69.7709H394.194L393.729 71.1186L395.62 71.7709ZM388.304 92.9749V94.9749H389.729L390.194 93.6272L388.304 92.9749ZM369.828 92.9749L367.956 92.2715L366.94 94.9749H369.828V92.9749ZM424.388 56.3949V58.3949H427.227L426.271 55.7215L424.388 56.3949ZM416.452 34.1989L414.536 34.7715L414.551 34.8223L414.569 34.8722L416.452 34.1989ZM413.228 23.4109L415.144 22.8382L414.718 21.4109H413.228V23.4109ZM412.236 23.4109V21.4109H410.746L410.32 22.8382L412.236 23.4109ZM409.012 34.1989L410.895 34.8722L410.913 34.8223L410.928 34.7715L409.012 34.1989ZM401.076 56.3949L399.193 55.7215L398.237 58.3949H401.076V56.3949ZM403.184 6.19087H422.28V2.19087H403.184V6.19087ZM420.408 4.89427L453.764 93.6783L457.508 92.2715L424.152 3.48748L420.408 4.89427ZM455.636 90.9749H437.16V94.9749H455.636V90.9749ZM439.05 92.3226L431.734 71.1186L427.953 72.4232L435.269 93.6272L439.05 92.3226ZM429.844 69.7709H395.62V73.7709H429.844V69.7709ZM393.729 71.1186L386.413 92.3226L390.194 93.6272L397.51 72.4232L393.729 71.1186ZM388.304 90.9749H369.828V94.9749H388.304V90.9749ZM371.7 93.6783L405.056 4.89427L401.312 3.48748L367.956 92.2715L371.7 93.6783ZM426.271 55.7215L418.335 33.5255L414.569 34.8722L422.505 57.0682L426.271 55.7215ZM418.368 33.6262L415.144 22.8382L411.312 23.9835L414.536 34.7715L418.368 33.6262ZM413.228 21.4109H412.236V25.4109H413.228V21.4109ZM410.32 22.8382L407.096 33.6262L410.928 34.7715L414.152 23.9835L410.32 22.8382ZM407.129 33.5255L399.193 55.7215L402.959 57.0682L410.895 34.8722L407.129 33.5255ZM401.076 58.3949H424.388V54.3949H401.076V58.3949ZM476.764 92.9749H474.764V94.9749H476.764V92.9749ZM476.764 20.0629H478.764V18.0629H476.764V20.0629ZM451.964 20.0629H449.964V22.0629H451.964V20.0629ZM451.964 4.19087V2.19087H449.964V4.19087H451.964ZM518.304 4.19087H520.304V2.19087H518.304V4.19087ZM518.304 20.0629V22.0629H520.304V20.0629H518.304ZM493.504 20.0629V18.0629H491.504V20.0629H493.504ZM493.504 92.9749V94.9749H495.504V92.9749H493.504ZM478.764 92.9749V20.0629H474.764V92.9749H478.764ZM476.764 18.0629H451.964V22.0629H476.764V18.0629ZM453.964 20.0629V4.19087H449.964V20.0629H453.964ZM451.964 6.19087H518.304V2.19087H451.964V6.19087ZM516.304 4.19087V20.0629H520.304V4.19087H516.304ZM518.304 18.0629H493.504V22.0629H518.304V18.0629ZM491.504 20.0629V92.9749H495.504V20.0629H491.504ZM493.504 90.9749H476.764V94.9749H493.504V90.9749ZM546.949 20.0629V18.0629H544.949V20.0629H546.949ZM546.949 40.6469H544.949V42.6469H546.949V40.6469ZM582.537 40.6469H584.537V38.6469H582.537V40.6469ZM582.537 56.5189V58.5189H584.537V56.5189H582.537ZM546.949 56.5189V54.5189H544.949V56.5189H546.949ZM546.949 77.1029H544.949V79.1029H546.949V77.1029ZM586.505 77.1029H588.505V75.1029H586.505V77.1029ZM586.505 92.9749V94.9749H588.505V92.9749H586.505ZM530.209 92.9749H528.209V94.9749H530.209V92.9749ZM530.209 4.19087V2.19087H528.209V4.19087H530.209ZM586.505 4.19087H588.505V2.19087H586.505V4.19087ZM586.505 20.0629V22.0629H588.505V20.0629H586.505ZM544.949 20.0629V40.6469H548.949V20.0629H544.949ZM546.949 42.6469H582.537V38.6469H546.949V42.6469ZM580.537 40.6469V56.5189H584.537V40.6469H580.537ZM582.537 54.5189H546.949V58.5189H582.537V54.5189ZM544.949 56.5189V77.1029H548.949V56.5189H544.949ZM546.949 79.1029H586.505V75.1029H546.949V79.1029ZM584.505 77.1029V92.9749H588.505V77.1029H584.505ZM586.505 90.9749H530.209V94.9749H586.505V90.9749ZM532.209 92.9749V4.19087H528.209V92.9749H532.209ZM530.209 6.19087H586.505V2.19087H530.209V6.19087ZM584.505 4.19087V20.0629H588.505V4.19087H584.505ZM586.505 18.0629H546.949V22.0629H586.505V18.0629Z" fill="#444444"/>
</svg>
