<svg width="1440" height="40" viewBox="0 0 1440 40" fill="none" xmlns="http://www.w3.org/2000/svg">
<line x1="-1" y1="17.7428" x2="399" y2="17.7428" stroke="#444444" stroke-width="10"/>
<path d="M373.5 19.5814C373.5 28.802 366.439 36.0503 358 36.0503C349.561 36.0503 342.5 28.802 342.5 19.5814C342.5 10.3607 349.561 3.11246 358 3.11246C366.439 3.11246 373.5 10.3607 373.5 19.5814Z" fill="white" stroke="#444444" stroke-width="5"/>
<path d="M313.5 19.5814C313.5 25.3099 309.125 29.7273 304 29.7273C298.875 29.7273 294.5 25.3099 294.5 19.5814C294.5 13.8528 298.875 9.43542 304 9.43542C309.125 9.43542 313.5 13.8528 313.5 19.5814Z" fill="white" stroke="#444444" stroke-width="5"/>
<line x1="1440" y1="21.4199" x2="1040" y2="21.4199" stroke="#444444" stroke-width="10"/>
<path d="M1065.5 19.5814C1065.5 10.3607 1072.56 3.11246 1081 3.11246C1089.44 3.11246 1096.5 10.3607 1096.5 19.5814C1096.5 28.802 1089.44 36.0503 1081 36.0503C1072.56 36.0503 1065.5 28.802 1065.5 19.5814Z" fill="white" stroke="#444444" stroke-width="5"/>
<path d="M1125.5 19.5814C1125.5 13.8528 1129.88 9.43543 1135 9.43543C1140.12 9.43543 1144.5 13.8528 1144.5 19.5814C1144.5 25.3099 1140.12 29.7273 1135 29.7273C1129.88 29.7273 1125.5 25.3099 1125.5 19.5814Z" fill="white" stroke="#444444" stroke-width="5"/>
<line y1="-5" x2="24.9777" y2="-5" transform="matrix(-0.720642 0.693307 -0.756888 -0.653545 1043 5.88159)" stroke="#444444" stroke-width="10"/>
<line y1="-5" x2="25.1029" y2="-5" transform="matrix(0.756909 0.653521 -0.72062 0.69333 1025 23.1988)" stroke="#444444" stroke-width="10"/>
<line y1="-5" x2="24.9777" y2="-5" transform="matrix(0.720642 -0.693307 0.756888 0.653545 396.001 34.3349)" stroke="#444444" stroke-width="10"/>
<line y1="-5" x2="25.1029" y2="-5" transform="matrix(-0.756909 -0.653521 0.72062 -0.69333 414.001 17.0177)" stroke="#444444" stroke-width="10"/>
</svg>
