<svg width="300" height="300" viewBox="0 0 300 300" fill="none" xmlns="http://www.w3.org/2000/svg">
<circle cx="150" cy="150" r="150" fill="#2A2039"/>
<path d="M63.1754 224.544H67.3514C67.9274 224.544 68.4501 224.635 68.9194 224.816C69.3888 224.997 69.7888 225.248 70.1194 225.568C70.4608 225.888 70.7221 226.272 70.9034 226.72C71.0848 227.157 71.1754 227.637 71.1754 228.16C71.1754 228.544 71.1114 228.907 70.9834 229.248C70.8554 229.579 70.6794 229.883 70.4554 230.16C70.2314 230.427 69.9701 230.667 69.6714 230.88C69.3728 231.083 69.0581 231.243 68.7274 231.36L68.7114 231.472L71.7834 235.872V236H69.3034L66.3434 231.696H65.3354V236H63.1754V224.544ZM67.3354 229.712C67.8261 229.712 68.2261 229.563 68.5354 229.264C68.8554 228.965 69.0154 228.587 69.0154 228.128C69.0154 227.925 68.9781 227.728 68.9034 227.536C68.8394 227.344 68.7381 227.173 68.5994 227.024C68.4608 226.875 68.2848 226.757 68.0714 226.672C67.8688 226.576 67.6341 226.528 67.3674 226.528H65.3354V229.712H67.3354ZM78.1091 234.976H77.9811C77.7357 235.371 77.4051 235.685 76.9891 235.92C76.5731 236.144 76.0984 236.256 75.5651 236.256C74.5731 236.256 73.8317 235.952 73.3411 235.344C72.8611 234.736 72.6211 233.925 72.6211 232.912V228.16H74.7171V232.656C74.7171 233.221 74.8397 233.643 75.0851 233.92C75.3411 234.187 75.7091 234.32 76.1891 234.32C76.4771 234.32 76.7277 234.261 76.9411 234.144C77.1651 234.016 77.3517 233.851 77.5011 233.648C77.6611 233.435 77.7784 233.189 77.8531 232.912C77.9384 232.624 77.9811 232.32 77.9811 232V228.16H80.0771V236H78.1091V234.976ZM81.8726 236V224.544H83.9686V236H81.8726ZM93.1091 234.112C92.7464 234.752 92.2557 235.269 91.6371 235.664C91.0291 236.059 90.2824 236.256 89.3971 236.256C88.7997 236.256 88.2451 236.155 87.7331 235.952C87.2317 235.739 86.7944 235.445 86.4211 235.072C86.0477 234.699 85.7544 234.261 85.5411 233.76C85.3384 233.248 85.2371 232.688 85.2371 232.08C85.2371 231.515 85.3384 230.981 85.5411 230.48C85.7437 229.968 86.0264 229.525 86.3891 229.152C86.7517 228.768 87.1784 228.464 87.6691 228.24C88.1704 228.016 88.7197 227.904 89.3171 227.904C89.9464 227.904 90.5064 228.011 90.9971 228.224C91.4877 228.427 91.8984 228.715 92.2291 229.088C92.5597 229.451 92.8104 229.883 92.9811 230.384C93.1517 230.885 93.2371 231.429 93.2371 232.016C93.2371 232.091 93.2371 232.155 93.2371 232.208C93.2264 232.272 93.2211 232.331 93.2211 232.384C93.2104 232.437 93.2051 232.496 93.2051 232.56H87.3011C87.3437 232.88 87.4291 233.157 87.5571 233.392C87.6957 233.616 87.8611 233.808 88.0531 233.968C88.2557 234.117 88.4744 234.229 88.7091 234.304C88.9437 234.368 89.1837 234.4 89.4291 234.4C89.9091 234.4 90.3037 234.293 90.6131 234.08C90.9331 233.856 91.1837 233.579 91.3651 233.248L93.1091 234.112ZM91.2051 231.072C91.1944 230.933 91.1464 230.779 91.0611 230.608C90.9864 230.437 90.8691 230.277 90.7091 230.128C90.5597 229.979 90.3677 229.856 90.1331 229.76C89.9091 229.664 89.6371 229.616 89.3171 229.616C88.8691 229.616 88.4744 229.744 88.1331 230C87.7917 230.256 87.5517 230.613 87.4131 231.072H91.2051ZM97.7578 236.256C97.2458 236.256 96.7871 236.192 96.3818 236.064C95.9871 235.936 95.6405 235.771 95.3418 235.568C95.0538 235.355 94.8085 235.115 94.6058 234.848C94.4031 234.571 94.2485 234.293 94.1418 234.016L96.0138 233.216C96.1951 233.621 96.4351 233.925 96.7338 234.128C97.0431 234.32 97.3845 234.416 97.7578 234.416C98.1418 234.416 98.4458 234.347 98.6698 234.208C98.8938 234.069 99.0058 233.904 99.0058 233.712C99.0058 233.499 98.9098 233.328 98.7178 233.2C98.5365 233.061 98.2165 232.939 97.7578 232.832L96.6538 232.592C96.4085 232.539 96.1525 232.453 95.8858 232.336C95.6298 232.219 95.3951 232.069 95.1818 231.888C94.9685 231.707 94.7925 231.488 94.6538 231.232C94.5151 230.976 94.4458 230.677 94.4458 230.336C94.4458 229.952 94.5258 229.611 94.6858 229.312C94.8565 229.013 95.0858 228.763 95.3738 228.56C95.6618 228.347 95.9978 228.187 96.3818 228.08C96.7765 227.963 97.1978 227.904 97.6458 227.904C98.3925 227.904 99.0591 228.053 99.6458 228.352C100.232 228.64 100.664 229.104 100.942 229.744L99.1338 230.48C98.9845 230.171 98.7658 229.947 98.4778 229.808C98.1898 229.669 97.9018 229.6 97.6138 229.6C97.3151 229.6 97.0538 229.664 96.8298 229.792C96.6058 229.909 96.4938 230.064 96.4938 230.256C96.4938 230.437 96.5845 230.581 96.7658 230.688C96.9578 230.795 97.2138 230.891 97.5338 230.976L98.7338 231.264C99.5338 231.456 100.126 231.765 100.51 232.192C100.904 232.608 101.102 233.104 101.102 233.68C101.102 234.021 101.022 234.347 100.862 234.656C100.702 234.965 100.472 235.243 100.174 235.488C99.8858 235.723 99.5338 235.909 99.1178 236.048C98.7125 236.187 98.2591 236.256 97.7578 236.256ZM105.072 228.16H107.424L108.72 233.072H108.832L110.384 228.16H112.544L114.112 233.072H114.224L115.504 228.16H117.824L115.312 236H113.056L111.488 231.056H111.376L109.808 236H107.584L105.072 228.16ZM119.947 227.024C119.765 227.024 119.589 226.992 119.419 226.928C119.259 226.853 119.115 226.757 118.987 226.64C118.869 226.512 118.773 226.368 118.699 226.208C118.635 226.048 118.603 225.872 118.603 225.68C118.603 225.488 118.635 225.312 118.699 225.152C118.773 224.992 118.869 224.853 118.987 224.736C119.115 224.608 119.259 224.512 119.419 224.448C119.589 224.373 119.765 224.336 119.947 224.336C120.32 224.336 120.64 224.469 120.907 224.736C121.173 224.992 121.307 225.307 121.307 225.68C121.307 226.053 121.173 226.373 120.907 226.64C120.64 226.896 120.32 227.024 119.947 227.024ZM118.907 236V228.16H121.003V236H118.907ZM122.919 236V224.544H125.015V236H122.919ZM126.81 236V224.544H128.906V236H126.81ZM134.216 224.544H136.312V227.984L136.184 229.104H136.312C136.504 228.773 136.803 228.491 137.208 228.256C137.614 228.021 138.115 227.904 138.712 227.904C139.214 227.904 139.688 228.011 140.136 228.224C140.595 228.427 140.995 228.715 141.336 229.088C141.688 229.451 141.966 229.888 142.168 230.4C142.371 230.912 142.472 231.472 142.472 232.08C142.472 232.688 142.371 233.248 142.168 233.76C141.966 234.272 141.688 234.715 141.336 235.088C140.995 235.451 140.595 235.739 140.136 235.952C139.688 236.155 139.214 236.256 138.712 236.256C138.115 236.256 137.614 236.139 137.208 235.904C136.803 235.669 136.504 235.387 136.312 235.056H136.184V236H134.216V224.544ZM138.28 234.32C138.558 234.32 138.819 234.267 139.064 234.16C139.32 234.053 139.544 233.904 139.736 233.712C139.928 233.52 140.083 233.285 140.2 233.008C140.318 232.731 140.376 232.421 140.376 232.08C140.376 231.739 140.318 231.429 140.2 231.152C140.083 230.875 139.928 230.64 139.736 230.448C139.544 230.256 139.32 230.107 139.064 230C138.819 229.893 138.558 229.84 138.28 229.84C138.003 229.84 137.736 229.893 137.48 230C137.235 230.096 137.016 230.24 136.824 230.432C136.632 230.624 136.478 230.859 136.36 231.136C136.243 231.413 136.184 231.728 136.184 232.08C136.184 232.432 136.243 232.747 136.36 233.024C136.478 233.301 136.632 233.536 136.824 233.728C137.016 233.92 137.235 234.069 137.48 234.176C137.736 234.272 138.003 234.32 138.28 234.32ZM151.234 234.112C150.871 234.752 150.381 235.269 149.762 235.664C149.154 236.059 148.407 236.256 147.522 236.256C146.925 236.256 146.37 236.155 145.858 235.952C145.357 235.739 144.919 235.445 144.546 235.072C144.173 234.699 143.879 234.261 143.666 233.76C143.463 233.248 143.362 232.688 143.362 232.08C143.362 231.515 143.463 230.981 143.666 230.48C143.869 229.968 144.151 229.525 144.514 229.152C144.877 228.768 145.303 228.464 145.794 228.24C146.295 228.016 146.845 227.904 147.442 227.904C148.071 227.904 148.631 228.011 149.122 228.224C149.613 228.427 150.023 228.715 150.354 229.088C150.685 229.451 150.935 229.883 151.106 230.384C151.277 230.885 151.362 231.429 151.362 232.016C151.362 232.091 151.362 232.155 151.362 232.208C151.351 232.272 151.346 232.331 151.346 232.384C151.335 232.437 151.33 232.496 151.33 232.56H145.426C145.469 232.88 145.554 233.157 145.682 233.392C145.821 233.616 145.986 233.808 146.178 233.968C146.381 234.117 146.599 234.229 146.834 234.304C147.069 234.368 147.309 234.4 147.554 234.4C148.034 234.4 148.429 234.293 148.738 234.08C149.058 233.856 149.309 233.579 149.49 233.248L151.234 234.112ZM149.33 231.072C149.319 230.933 149.271 230.779 149.186 230.608C149.111 230.437 148.994 230.277 148.834 230.128C148.685 229.979 148.493 229.856 148.258 229.76C148.034 229.664 147.762 229.616 147.442 229.616C146.994 229.616 146.599 229.744 146.258 230C145.917 230.256 145.677 230.613 145.538 231.072H149.33ZM161.048 235.168H160.92C160.675 235.467 160.376 235.723 160.024 235.936C159.683 236.149 159.24 236.256 158.696 236.256C158.291 236.256 157.907 236.187 157.544 236.048C157.192 235.92 156.883 235.739 156.616 235.504C156.35 235.269 156.142 234.987 155.992 234.656C155.843 234.325 155.768 233.963 155.768 233.568C155.768 233.163 155.848 232.8 156.008 232.48C156.168 232.149 156.392 231.867 156.68 231.632C156.968 231.397 157.304 231.221 157.688 231.104C158.083 230.976 158.51 230.912 158.968 230.912C159.48 230.912 159.902 230.955 160.232 231.04C160.563 231.115 160.835 231.195 161.048 231.28V231.04C161.048 230.624 160.883 230.283 160.552 230.016C160.222 229.739 159.811 229.6 159.32 229.6C158.595 229.6 157.982 229.904 157.48 230.512L155.96 229.472C156.792 228.427 157.928 227.904 159.368 227.904C160.584 227.904 161.512 228.192 162.152 228.768C162.792 229.333 163.112 230.176 163.112 231.296V236H161.048V235.168ZM161.048 232.816C160.803 232.699 160.547 232.608 160.28 232.544C160.024 232.469 159.742 232.432 159.432 232.432C158.931 232.432 158.542 232.544 158.264 232.768C157.998 232.981 157.864 233.248 157.864 233.568C157.864 233.888 157.992 234.144 158.248 234.336C158.515 234.528 158.819 234.624 159.16 234.624C159.438 234.624 159.694 234.576 159.928 234.48C160.163 234.373 160.36 234.24 160.52 234.08C160.691 233.909 160.819 233.717 160.904 233.504C161 233.28 161.048 233.051 161.048 232.816ZM166.747 229.184H166.875C167.12 228.789 167.451 228.48 167.867 228.256C168.283 228.021 168.757 227.904 169.291 227.904C169.781 227.904 170.213 227.984 170.587 228.144C170.96 228.304 171.264 228.533 171.499 228.832C171.744 229.12 171.925 229.472 172.043 229.888C172.171 230.293 172.235 230.747 172.235 231.248V236H170.139V231.504C170.139 230.939 170.011 230.523 169.755 230.256C169.509 229.979 169.147 229.84 168.667 229.84C168.379 229.84 168.123 229.904 167.899 230.032C167.685 230.149 167.499 230.315 167.339 230.528C167.189 230.731 167.072 230.976 166.987 231.264C166.912 231.541 166.875 231.84 166.875 232.16V236H164.779V228.16H166.747V229.184ZM175.934 229.184H176.062C176.308 228.789 176.638 228.48 177.054 228.256C177.47 228.021 177.945 227.904 178.478 227.904C178.969 227.904 179.401 227.984 179.774 228.144C180.148 228.304 180.452 228.533 180.686 228.832C180.932 229.12 181.113 229.472 181.23 229.888C181.358 230.293 181.422 230.747 181.422 231.248V236H179.326V231.504C179.326 230.939 179.198 230.523 178.942 230.256C178.697 229.979 178.334 229.84 177.854 229.84C177.566 229.84 177.31 229.904 177.086 230.032C176.873 230.149 176.686 230.315 176.526 230.528C176.377 230.731 176.26 230.976 176.174 231.264C176.1 231.541 176.062 231.84 176.062 232.16V236H173.966V228.16H175.934V229.184ZM186.866 227.904C187.474 227.904 188.028 228.011 188.53 228.224C189.042 228.427 189.479 228.715 189.842 229.088C190.215 229.451 190.503 229.888 190.706 230.4C190.919 230.912 191.026 231.472 191.026 232.08C191.026 232.688 190.919 233.248 190.706 233.76C190.503 234.272 190.215 234.715 189.842 235.088C189.479 235.451 189.042 235.739 188.53 235.952C188.028 236.155 187.474 236.256 186.866 236.256C186.258 236.256 185.698 236.155 185.186 235.952C184.684 235.739 184.247 235.451 183.874 235.088C183.511 234.715 183.223 234.272 183.01 233.76C182.807 233.248 182.706 232.688 182.706 232.08C182.706 231.472 182.807 230.912 183.01 230.4C183.223 229.888 183.511 229.451 183.874 229.088C184.247 228.715 184.684 228.427 185.186 228.224C185.698 228.011 186.258 227.904 186.866 227.904ZM186.866 234.32C187.132 234.32 187.388 234.272 187.634 234.176C187.89 234.069 188.114 233.92 188.306 233.728C188.498 233.536 188.647 233.301 188.754 233.024C188.871 232.747 188.93 232.432 188.93 232.08C188.93 231.728 188.871 231.413 188.754 231.136C188.647 230.859 188.498 230.624 188.306 230.432C188.114 230.24 187.89 230.096 187.634 230C187.388 229.893 187.132 229.84 186.866 229.84C186.588 229.84 186.327 229.893 186.082 230C185.836 230.096 185.618 230.24 185.426 230.432C185.234 230.624 185.079 230.859 184.962 231.136C184.855 231.413 184.802 231.728 184.802 232.08C184.802 232.432 184.855 232.747 184.962 233.024C185.079 233.301 185.234 233.536 185.426 233.728C185.618 233.92 185.836 234.069 186.082 234.176C186.327 234.272 186.588 234.32 186.866 234.32ZM197.718 234.976H197.59C197.345 235.371 197.014 235.685 196.598 235.92C196.182 236.144 195.708 236.256 195.174 236.256C194.182 236.256 193.441 235.952 192.95 235.344C192.47 234.736 192.23 233.925 192.23 232.912V228.16H194.326V232.656C194.326 233.221 194.449 233.643 194.694 233.92C194.95 234.187 195.318 234.32 195.798 234.32C196.086 234.32 196.337 234.261 196.55 234.144C196.774 234.016 196.961 233.851 197.11 233.648C197.27 233.435 197.388 233.189 197.462 232.912C197.548 232.624 197.59 232.32 197.59 232V228.16H199.686V236H197.718V234.976ZM203.45 229.184H203.578C203.823 228.789 204.154 228.48 204.57 228.256C204.986 228.021 205.461 227.904 205.994 227.904C206.485 227.904 206.917 227.984 207.29 228.144C207.663 228.304 207.967 228.533 208.202 228.832C208.447 229.12 208.629 229.472 208.746 229.888C208.874 230.293 208.938 230.747 208.938 231.248V236H206.842V231.504C206.842 230.939 206.714 230.523 206.458 230.256C206.213 229.979 205.85 229.84 205.37 229.84C205.082 229.84 204.826 229.904 204.602 230.032C204.389 230.149 204.202 230.315 204.042 230.528C203.893 230.731 203.775 230.976 203.69 231.264C203.615 231.541 203.578 231.84 203.578 232.16V236H201.482V228.16H203.45V229.184ZM218.109 234C217.768 234.661 217.288 235.205 216.669 235.632C216.061 236.048 215.299 236.256 214.381 236.256C213.773 236.256 213.213 236.155 212.701 235.952C212.2 235.739 211.763 235.445 211.389 235.072C211.027 234.699 210.739 234.261 210.525 233.76C210.323 233.248 210.221 232.688 210.221 232.08C210.221 231.472 210.323 230.912 210.525 230.4C210.739 229.888 211.027 229.451 211.389 229.088C211.763 228.715 212.2 228.427 212.701 228.224C213.213 228.011 213.773 227.904 214.381 227.904C215.288 227.904 216.051 228.112 216.669 228.528C217.288 228.944 217.741 229.483 218.029 230.144L216.109 230.944C215.928 230.581 215.693 230.309 215.405 230.128C215.128 229.936 214.776 229.84 214.349 229.84C214.072 229.84 213.811 229.893 213.565 230C213.32 230.107 213.101 230.256 212.909 230.448C212.728 230.64 212.584 230.875 212.477 231.152C212.371 231.429 212.317 231.739 212.317 232.08C212.317 232.421 212.371 232.731 212.477 233.008C212.584 233.285 212.728 233.52 212.909 233.712C213.101 233.904 213.32 234.053 213.565 234.16C213.811 234.267 214.072 234.32 214.349 234.32C214.787 234.32 215.155 234.224 215.453 234.032C215.763 233.829 216.008 233.541 216.189 233.168L218.109 234ZM226.734 234.112C226.371 234.752 225.881 235.269 225.262 235.664C224.654 236.059 223.907 236.256 223.022 236.256C222.425 236.256 221.87 236.155 221.358 235.952C220.857 235.739 220.419 235.445 220.046 235.072C219.673 234.699 219.379 234.261 219.166 233.76C218.963 233.248 218.862 232.688 218.862 232.08C218.862 231.515 218.963 230.981 219.166 230.48C219.369 229.968 219.651 229.525 220.014 229.152C220.377 228.768 220.803 228.464 221.294 228.24C221.795 228.016 222.345 227.904 222.942 227.904C223.571 227.904 224.131 228.011 224.622 228.224C225.113 228.427 225.523 228.715 225.854 229.088C226.185 229.451 226.435 229.883 226.606 230.384C226.777 230.885 226.862 231.429 226.862 232.016C226.862 232.091 226.862 232.155 226.862 232.208C226.851 232.272 226.846 232.331 226.846 232.384C226.835 232.437 226.83 232.496 226.83 232.56H220.926C220.969 232.88 221.054 233.157 221.182 233.392C221.321 233.616 221.486 233.808 221.678 233.968C221.881 234.117 222.099 234.229 222.334 234.304C222.569 234.368 222.809 234.4 223.054 234.4C223.534 234.4 223.929 234.293 224.238 234.08C224.558 233.856 224.809 233.579 224.99 233.248L226.734 234.112ZM224.83 231.072C224.819 230.933 224.771 230.779 224.686 230.608C224.611 230.437 224.494 230.277 224.334 230.128C224.185 229.979 223.993 229.856 223.758 229.76C223.534 229.664 223.262 229.616 222.942 229.616C222.494 229.616 222.099 229.744 221.758 230C221.417 230.256 221.177 230.613 221.038 231.072H224.83ZM234.119 235.056H233.991C233.799 235.387 233.5 235.669 233.095 235.904C232.689 236.139 232.188 236.256 231.591 236.256C231.089 236.256 230.609 236.155 230.151 235.952C229.703 235.739 229.303 235.451 228.951 235.088C228.609 234.715 228.337 234.272 228.135 233.76C227.932 233.248 227.831 232.688 227.831 232.08C227.831 231.472 227.932 230.912 228.135 230.4C228.337 229.888 228.609 229.451 228.951 229.088C229.303 228.715 229.703 228.427 230.151 228.224C230.609 228.011 231.089 227.904 231.591 227.904C232.188 227.904 232.689 228.021 233.095 228.256C233.5 228.491 233.799 228.773 233.991 229.104H234.119L233.991 227.984V224.544H236.087V236H234.119V235.056ZM232.023 234.32C232.3 234.32 232.561 234.272 232.807 234.176C233.063 234.069 233.287 233.92 233.479 233.728C233.671 233.536 233.825 233.301 233.943 233.024C234.06 232.747 234.119 232.432 234.119 232.08C234.119 231.728 234.06 231.413 233.943 231.136C233.825 230.859 233.671 230.624 233.479 230.432C233.287 230.24 233.063 230.096 232.807 230C232.561 229.893 232.3 229.84 232.023 229.84C231.745 229.84 231.479 229.893 231.223 230C230.977 230.107 230.759 230.256 230.567 230.448C230.375 230.64 230.22 230.875 230.103 231.152C229.985 231.429 229.927 231.739 229.927 232.08C229.927 232.421 229.985 232.731 230.103 233.008C230.22 233.285 230.375 233.52 230.567 233.712C230.759 233.904 230.977 234.053 231.223 234.16C231.479 234.267 231.745 234.32 232.023 234.32ZM80.4155 254.168H80.2875C80.0422 254.467 79.7435 254.723 79.3915 254.936C79.0502 255.149 78.6075 255.256 78.0635 255.256C77.6582 255.256 77.2742 255.187 76.9115 255.048C76.5595 254.92 76.2502 254.739 75.9835 254.504C75.7168 254.269 75.5088 253.987 75.3595 253.656C75.2102 253.325 75.1355 252.963 75.1355 252.568C75.1355 252.163 75.2155 251.8 75.3755 251.48C75.5355 251.149 75.7595 250.867 76.0475 250.632C76.3355 250.397 76.6715 250.221 77.0555 250.104C77.4502 249.976 77.8768 249.912 78.3355 249.912C78.8475 249.912 79.2688 249.955 79.5995 250.04C79.9302 250.115 80.2022 250.195 80.4155 250.28V250.04C80.4155 249.624 80.2502 249.283 79.9195 249.016C79.5888 248.739 79.1782 248.6 78.6875 248.6C77.9622 248.6 77.3488 248.904 76.8475 249.512L75.3275 248.472C76.1595 247.427 77.2955 246.904 78.7355 246.904C79.9515 246.904 80.8795 247.192 81.5195 247.768C82.1595 248.333 82.4795 249.176 82.4795 250.296V255H80.4155V254.168ZM80.4155 251.816C80.1702 251.699 79.9142 251.608 79.6475 251.544C79.3915 251.469 79.1088 251.432 78.7995 251.432C78.2982 251.432 77.9088 251.544 77.6315 251.768C77.3648 251.981 77.2315 252.248 77.2315 252.568C77.2315 252.888 77.3595 253.144 77.6155 253.336C77.8822 253.528 78.1862 253.624 78.5275 253.624C78.8048 253.624 79.0608 253.576 79.2955 253.48C79.5302 253.373 79.7275 253.24 79.8875 253.08C80.0582 252.909 80.1862 252.717 80.2715 252.504C80.3675 252.28 80.4155 252.051 80.4155 251.816ZM89.9418 248.952H86.9818V255H84.8858V248.952H83.4778V247.16H84.8858V246.392C84.8858 245.912 84.9551 245.491 85.0938 245.128C85.2431 244.755 85.4511 244.445 85.7178 244.2C85.9844 243.944 86.2991 243.752 86.6618 243.624C87.0244 243.485 87.4244 243.416 87.8618 243.416C88.0751 243.416 88.2458 243.427 88.3738 243.448C88.5018 243.469 88.6244 243.501 88.7418 243.544L88.6138 245.512C88.5391 245.48 88.4538 245.453 88.3578 245.432C88.2618 245.411 88.1391 245.4 87.9898 245.4C87.6804 245.4 87.4351 245.501 87.2538 245.704C87.0724 245.907 86.9818 246.184 86.9818 246.536V247.16H89.9418V244.76H92.0378V247.16H93.9578V248.952H92.0378V251.992C92.0378 252.173 92.0538 252.344 92.0858 252.504C92.1284 252.653 92.2031 252.781 92.3098 252.888C92.4591 253.059 92.6724 253.144 92.9498 253.144C93.1311 253.144 93.2751 253.128 93.3818 253.096C93.4884 253.053 93.5898 253 93.6858 252.936L94.2778 254.776C94.0324 254.893 93.7658 254.979 93.4778 255.032C93.2004 255.096 92.8911 255.128 92.5498 255.128C92.1551 255.128 91.7978 255.069 91.4778 254.952C91.1684 254.824 90.9071 254.653 90.6938 254.44C90.1924 253.96 89.9418 253.277 89.9418 252.392V248.952ZM102.836 253.112C102.473 253.752 101.982 254.269 101.364 254.664C100.756 255.059 100.009 255.256 99.1236 255.256C98.5263 255.256 97.9716 255.155 97.4596 254.952C96.9583 254.739 96.521 254.445 96.1476 254.072C95.7743 253.699 95.481 253.261 95.2676 252.76C95.065 252.248 94.9636 251.688 94.9636 251.08C94.9636 250.515 95.065 249.981 95.2676 249.48C95.4703 248.968 95.753 248.525 96.1156 248.152C96.4783 247.768 96.905 247.464 97.3956 247.24C97.897 247.016 98.4463 246.904 99.0436 246.904C99.673 246.904 100.233 247.011 100.724 247.224C101.214 247.427 101.625 247.715 101.956 248.088C102.286 248.451 102.537 248.883 102.708 249.384C102.878 249.885 102.964 250.429 102.964 251.016C102.964 251.091 102.964 251.155 102.964 251.208C102.953 251.272 102.948 251.331 102.948 251.384C102.937 251.437 102.932 251.496 102.932 251.56H97.0276C97.0703 251.88 97.1556 252.157 97.2836 252.392C97.4223 252.616 97.5876 252.808 97.7796 252.968C97.9823 253.117 98.201 253.229 98.4356 253.304C98.6703 253.368 98.9103 253.4 99.1556 253.4C99.6356 253.4 100.03 253.293 100.34 253.08C100.66 252.856 100.91 252.579 101.092 252.248L102.836 253.112ZM100.932 250.072C100.921 249.933 100.873 249.779 100.788 249.608C100.713 249.437 100.596 249.277 100.436 249.128C100.286 248.979 100.094 248.856 99.8596 248.76C99.6356 248.664 99.3636 248.616 99.0436 248.616C98.5956 248.616 98.201 248.744 97.8596 249C97.5183 249.256 97.2783 249.613 97.1396 250.072H100.932ZM104.302 247.16H106.27V248.248H106.398C106.494 248.056 106.622 247.88 106.782 247.72C106.942 247.56 107.118 247.421 107.31 247.304C107.513 247.187 107.726 247.096 107.95 247.032C108.185 246.968 108.414 246.936 108.638 246.936C108.916 246.936 109.15 246.963 109.342 247.016C109.545 247.069 109.716 247.139 109.854 247.224L109.294 249.128C109.166 249.064 109.022 249.016 108.862 248.984C108.713 248.941 108.526 248.92 108.302 248.92C108.014 248.92 107.753 248.979 107.518 249.096C107.284 249.203 107.081 249.357 106.91 249.56C106.75 249.763 106.622 250.003 106.526 250.28C106.441 250.547 106.398 250.84 106.398 251.16V255H104.302V247.16ZM114.59 243.544H116.75V255H114.59V243.544ZM124.642 254.056H124.514C124.322 254.387 124.024 254.669 123.618 254.904C123.213 255.139 122.712 255.256 122.114 255.256C121.613 255.256 121.133 255.155 120.674 254.952C120.226 254.739 119.826 254.451 119.474 254.088C119.133 253.715 118.861 253.272 118.658 252.76C118.456 252.248 118.354 251.688 118.354 251.08C118.354 250.472 118.456 249.912 118.658 249.4C118.861 248.888 119.133 248.451 119.474 248.088C119.826 247.715 120.226 247.427 120.674 247.224C121.133 247.011 121.613 246.904 122.114 246.904C122.712 246.904 123.213 247.021 123.618 247.256C124.024 247.491 124.322 247.773 124.514 248.104H124.642L124.514 246.984V243.544H126.61V255H124.642V254.056ZM122.546 253.32C122.824 253.32 123.085 253.272 123.33 253.176C123.586 253.069 123.81 252.92 124.002 252.728C124.194 252.536 124.349 252.301 124.466 252.024C124.584 251.747 124.642 251.432 124.642 251.08C124.642 250.728 124.584 250.413 124.466 250.136C124.349 249.859 124.194 249.624 124.002 249.432C123.81 249.24 123.586 249.096 123.33 249C123.085 248.893 122.824 248.84 122.546 248.84C122.269 248.84 122.002 248.893 121.746 249C121.501 249.107 121.282 249.256 121.09 249.448C120.898 249.64 120.744 249.875 120.626 250.152C120.509 250.429 120.45 250.739 120.45 251.08C120.45 251.421 120.509 251.731 120.626 252.008C120.744 252.285 120.898 252.52 121.09 252.712C121.282 252.904 121.501 253.053 121.746 253.16C122.002 253.267 122.269 253.32 122.546 253.32ZM135.742 253.112C135.379 253.752 134.889 254.269 134.27 254.664C133.662 255.059 132.915 255.256 132.03 255.256C131.433 255.256 130.878 255.155 130.366 254.952C129.865 254.739 129.427 254.445 129.054 254.072C128.681 253.699 128.387 253.261 128.174 252.76C127.971 252.248 127.87 251.688 127.87 251.08C127.87 250.515 127.971 249.981 128.174 249.48C128.377 248.968 128.659 248.525 129.022 248.152C129.385 247.768 129.811 247.464 130.302 247.24C130.803 247.016 131.353 246.904 131.95 246.904C132.579 246.904 133.139 247.011 133.63 247.224C134.121 247.427 134.531 247.715 134.862 248.088C135.193 248.451 135.443 248.883 135.614 249.384C135.785 249.885 135.87 250.429 135.87 251.016C135.87 251.091 135.87 251.155 135.87 251.208C135.859 251.272 135.854 251.331 135.854 251.384C135.843 251.437 135.838 251.496 135.838 251.56H129.934C129.977 251.88 130.062 252.157 130.19 252.392C130.329 252.616 130.494 252.808 130.686 252.968C130.889 253.117 131.107 253.229 131.342 253.304C131.577 253.368 131.817 253.4 132.062 253.4C132.542 253.4 132.937 253.293 133.246 253.08C133.566 252.856 133.817 252.579 133.998 252.248L135.742 253.112ZM133.838 250.072C133.827 249.933 133.779 249.779 133.694 249.608C133.619 249.437 133.502 249.277 133.342 249.128C133.193 248.979 133.001 248.856 132.766 248.76C132.542 248.664 132.27 248.616 131.95 248.616C131.502 248.616 131.107 248.744 130.766 249C130.425 249.256 130.185 249.613 130.046 250.072H133.838ZM142.119 254.168H141.991C141.745 254.467 141.447 254.723 141.095 254.936C140.753 255.149 140.311 255.256 139.767 255.256C139.361 255.256 138.977 255.187 138.615 255.048C138.263 254.92 137.953 254.739 137.687 254.504C137.42 254.269 137.212 253.987 137.063 253.656C136.913 253.325 136.839 252.963 136.839 252.568C136.839 252.163 136.919 251.8 137.079 251.48C137.239 251.149 137.463 250.867 137.751 250.632C138.039 250.397 138.375 250.221 138.759 250.104C139.153 249.976 139.58 249.912 140.039 249.912C140.551 249.912 140.972 249.955 141.303 250.04C141.633 250.115 141.905 250.195 142.119 250.28V250.04C142.119 249.624 141.953 249.283 141.623 249.016C141.292 248.739 140.881 248.6 140.391 248.6C139.665 248.6 139.052 248.904 138.551 249.512L137.031 248.472C137.863 247.427 138.999 246.904 140.439 246.904C141.655 246.904 142.583 247.192 143.223 247.768C143.863 248.333 144.183 249.176 144.183 250.296V255H142.119V254.168ZM142.119 251.816C141.873 251.699 141.617 251.608 141.351 251.544C141.095 251.469 140.812 251.432 140.503 251.432C140.001 251.432 139.612 251.544 139.335 251.768C139.068 251.981 138.935 252.248 138.935 252.568C138.935 252.888 139.063 253.144 139.319 253.336C139.585 253.528 139.889 253.624 140.231 253.624C140.508 253.624 140.764 253.576 140.999 253.48C141.233 253.373 141.431 253.24 141.591 253.08C141.761 252.909 141.889 252.717 141.975 252.504C142.071 252.28 142.119 252.051 142.119 251.816ZM146.557 248.952H145.181V247.16H146.557V244.76H148.653V247.16H150.573V248.952H148.653V251.992C148.653 252.173 148.669 252.344 148.701 252.504C148.744 252.653 148.818 252.781 148.925 252.888C149.074 253.059 149.288 253.144 149.565 253.144C149.746 253.144 149.89 253.128 149.997 253.096C150.104 253.053 150.205 253 150.301 252.936L150.893 254.776C150.648 254.893 150.381 254.979 150.093 255.032C149.816 255.096 149.506 255.128 149.165 255.128C148.77 255.128 148.413 255.069 148.093 254.952C147.784 254.824 147.522 254.653 147.309 254.44C146.808 253.96 146.557 253.277 146.557 252.392V248.952ZM153.361 246.024C153.18 246.024 153.004 245.992 152.833 245.928C152.673 245.853 152.529 245.757 152.401 245.64C152.284 245.512 152.188 245.368 152.113 245.208C152.049 245.048 152.017 244.872 152.017 244.68C152.017 244.488 152.049 244.312 152.113 244.152C152.188 243.992 152.284 243.853 152.401 243.736C152.529 243.608 152.673 243.512 152.833 243.448C153.004 243.373 153.18 243.336 153.361 243.336C153.734 243.336 154.054 243.469 154.321 243.736C154.588 243.992 154.721 244.307 154.721 244.68C154.721 245.053 154.588 245.373 154.321 245.64C154.054 245.896 153.734 246.024 153.361 246.024ZM152.321 255V247.16H154.417V255H152.321ZM159.967 246.904C160.575 246.904 161.13 247.011 161.631 247.224C162.143 247.427 162.581 247.715 162.943 248.088C163.317 248.451 163.605 248.888 163.807 249.4C164.021 249.912 164.127 250.472 164.127 251.08C164.127 251.688 164.021 252.248 163.807 252.76C163.605 253.272 163.317 253.715 162.943 254.088C162.581 254.451 162.143 254.739 161.631 254.952C161.13 255.155 160.575 255.256 159.967 255.256C159.359 255.256 158.799 255.155 158.287 254.952C157.786 254.739 157.349 254.451 156.975 254.088C156.613 253.715 156.325 253.272 156.111 252.76C155.909 252.248 155.807 251.688 155.807 251.08C155.807 250.472 155.909 249.912 156.111 249.4C156.325 248.888 156.613 248.451 156.975 248.088C157.349 247.715 157.786 247.427 158.287 247.224C158.799 247.011 159.359 246.904 159.967 246.904ZM159.967 253.32C160.234 253.32 160.49 253.272 160.735 253.176C160.991 253.069 161.215 252.92 161.407 252.728C161.599 252.536 161.749 252.301 161.855 252.024C161.973 251.747 162.031 251.432 162.031 251.08C162.031 250.728 161.973 250.413 161.855 250.136C161.749 249.859 161.599 249.624 161.407 249.432C161.215 249.24 160.991 249.096 160.735 249C160.49 248.893 160.234 248.84 159.967 248.84C159.69 248.84 159.429 248.893 159.183 249C158.938 249.096 158.719 249.24 158.527 249.432C158.335 249.624 158.181 249.859 158.063 250.136C157.957 250.413 157.903 250.728 157.903 251.08C157.903 251.432 157.957 251.747 158.063 252.024C158.181 252.301 158.335 252.536 158.527 252.728C158.719 252.92 158.938 253.069 159.183 253.176C159.429 253.272 159.69 253.32 159.967 253.32ZM167.286 248.184H167.414C167.659 247.789 167.99 247.48 168.406 247.256C168.822 247.021 169.297 246.904 169.83 246.904C170.321 246.904 170.753 246.984 171.126 247.144C171.499 247.304 171.803 247.533 172.038 247.832C172.283 248.12 172.465 248.472 172.582 248.888C172.71 249.293 172.774 249.747 172.774 250.248V255H170.678V250.504C170.678 249.939 170.55 249.523 170.294 249.256C170.049 248.979 169.686 248.84 169.206 248.84C168.918 248.84 168.662 248.904 168.438 249.032C168.225 249.149 168.038 249.315 167.878 249.528C167.729 249.731 167.611 249.976 167.526 250.264C167.451 250.541 167.414 250.84 167.414 251.16V255H165.318V247.16H167.286V248.184ZM181.473 247.16H183.441V248.104H183.569C183.761 247.773 184.059 247.491 184.465 247.256C184.87 247.021 185.371 246.904 185.969 246.904C186.47 246.904 186.945 247.011 187.393 247.224C187.851 247.427 188.251 247.715 188.593 248.088C188.945 248.451 189.222 248.888 189.425 249.4C189.627 249.912 189.729 250.472 189.729 251.08C189.729 251.688 189.627 252.248 189.425 252.76C189.222 253.272 188.945 253.715 188.593 254.088C188.251 254.451 187.851 254.739 187.393 254.952C186.945 255.155 186.47 255.256 185.969 255.256C185.371 255.256 184.87 255.139 184.465 254.904C184.059 254.669 183.761 254.387 183.569 254.056H183.441L183.569 255.176V258.456H181.473V247.16ZM185.537 253.32C185.814 253.32 186.075 253.267 186.321 253.16C186.577 253.053 186.801 252.904 186.993 252.712C187.185 252.52 187.339 252.285 187.457 252.008C187.574 251.731 187.633 251.421 187.633 251.08C187.633 250.739 187.574 250.429 187.457 250.152C187.339 249.875 187.185 249.64 186.993 249.448C186.801 249.256 186.577 249.107 186.321 249C186.075 248.893 185.814 248.84 185.537 248.84C185.259 248.84 184.993 248.893 184.737 249C184.491 249.096 184.273 249.24 184.081 249.432C183.889 249.624 183.734 249.859 183.617 250.136C183.499 250.413 183.441 250.728 183.441 251.08C183.441 251.432 183.499 251.747 183.617 252.024C183.734 252.301 183.889 252.536 184.081 252.728C184.273 252.92 184.491 253.069 184.737 253.176C184.993 253.272 185.259 253.32 185.537 253.32ZM190.912 243.544H193.008V246.76L192.88 248.184H193.008C193.232 247.811 193.552 247.507 193.968 247.272C194.394 247.027 194.869 246.904 195.392 246.904C196.405 246.904 197.152 247.203 197.632 247.8C198.122 248.397 198.368 249.213 198.368 250.248V255H196.272V250.504C196.272 249.96 196.144 249.549 195.888 249.272C195.632 248.984 195.274 248.84 194.816 248.84C194.528 248.84 194.272 248.904 194.048 249.032C193.824 249.149 193.632 249.315 193.472 249.528C193.322 249.741 193.205 249.992 193.12 250.28C193.045 250.557 193.008 250.856 193.008 251.176V255H190.912V243.544ZM204.853 254.168H204.725C204.48 254.467 204.181 254.723 203.829 254.936C203.488 255.149 203.045 255.256 202.501 255.256C202.096 255.256 201.712 255.187 201.349 255.048C200.997 254.92 200.688 254.739 200.421 254.504C200.154 254.269 199.946 253.987 199.797 253.656C199.648 253.325 199.573 252.963 199.573 252.568C199.573 252.163 199.653 251.8 199.813 251.48C199.973 251.149 200.197 250.867 200.485 250.632C200.773 250.397 201.109 250.221 201.493 250.104C201.888 249.976 202.314 249.912 202.773 249.912C203.285 249.912 203.706 249.955 204.037 250.04C204.368 250.115 204.64 250.195 204.853 250.28V250.04C204.853 249.624 204.688 249.283 204.357 249.016C204.026 248.739 203.616 248.6 203.125 248.6C202.4 248.6 201.786 248.904 201.285 249.512L199.765 248.472C200.597 247.427 201.733 246.904 203.173 246.904C204.389 246.904 205.317 247.192 205.957 247.768C206.597 248.333 206.917 249.176 206.917 250.296V255H204.853V254.168ZM204.853 251.816C204.608 251.699 204.352 251.608 204.085 251.544C203.829 251.469 203.546 251.432 203.237 251.432C202.736 251.432 202.346 251.544 202.069 251.768C201.802 251.981 201.669 252.248 201.669 252.568C201.669 252.888 201.797 253.144 202.053 253.336C202.32 253.528 202.624 253.624 202.965 253.624C203.242 253.624 203.498 253.576 203.733 253.48C203.968 253.373 204.165 253.24 204.325 253.08C204.496 252.909 204.624 252.717 204.709 252.504C204.805 252.28 204.853 252.051 204.853 251.816ZM211.609 255.256C211.097 255.256 210.639 255.192 210.233 255.064C209.839 254.936 209.492 254.771 209.193 254.568C208.905 254.355 208.66 254.115 208.457 253.848C208.255 253.571 208.1 253.293 207.993 253.016L209.865 252.216C210.047 252.621 210.287 252.925 210.585 253.128C210.895 253.32 211.236 253.416 211.609 253.416C211.993 253.416 212.297 253.347 212.521 253.208C212.745 253.069 212.857 252.904 212.857 252.712C212.857 252.499 212.761 252.328 212.569 252.2C212.388 252.061 212.068 251.939 211.609 251.832L210.505 251.592C210.26 251.539 210.004 251.453 209.737 251.336C209.481 251.219 209.247 251.069 209.033 250.888C208.82 250.707 208.644 250.488 208.505 250.232C208.367 249.976 208.297 249.677 208.297 249.336C208.297 248.952 208.377 248.611 208.537 248.312C208.708 248.013 208.937 247.763 209.225 247.56C209.513 247.347 209.849 247.187 210.233 247.08C210.628 246.963 211.049 246.904 211.497 246.904C212.244 246.904 212.911 247.053 213.497 247.352C214.084 247.64 214.516 248.104 214.793 248.744L212.985 249.48C212.836 249.171 212.617 248.947 212.329 248.808C212.041 248.669 211.753 248.6 211.465 248.6C211.167 248.6 210.905 248.664 210.681 248.792C210.457 248.909 210.345 249.064 210.345 249.256C210.345 249.437 210.436 249.581 210.617 249.688C210.809 249.795 211.065 249.891 211.385 249.976L212.585 250.264C213.385 250.456 213.977 250.765 214.361 251.192C214.756 251.608 214.953 252.104 214.953 252.68C214.953 253.021 214.873 253.347 214.713 253.656C214.553 253.965 214.324 254.243 214.025 254.488C213.737 254.723 213.385 254.909 212.969 255.048C212.564 255.187 212.111 255.256 211.609 255.256ZM223.742 253.112C223.379 253.752 222.889 254.269 222.27 254.664C221.662 255.059 220.915 255.256 220.03 255.256C219.433 255.256 218.878 255.155 218.366 254.952C217.865 254.739 217.427 254.445 217.054 254.072C216.681 253.699 216.387 253.261 216.174 252.76C215.971 252.248 215.87 251.688 215.87 251.08C215.87 250.515 215.971 249.981 216.174 249.48C216.377 248.968 216.659 248.525 217.022 248.152C217.385 247.768 217.811 247.464 218.302 247.24C218.803 247.016 219.353 246.904 219.95 246.904C220.579 246.904 221.139 247.011 221.63 247.224C222.121 247.427 222.531 247.715 222.862 248.088C223.193 248.451 223.443 248.883 223.614 249.384C223.785 249.885 223.87 250.429 223.87 251.016C223.87 251.091 223.87 251.155 223.87 251.208C223.859 251.272 223.854 251.331 223.854 251.384C223.843 251.437 223.838 251.496 223.838 251.56H217.934C217.977 251.88 218.062 252.157 218.19 252.392C218.329 252.616 218.494 252.808 218.686 252.968C218.889 253.117 219.107 253.229 219.342 253.304C219.577 253.368 219.817 253.4 220.062 253.4C220.542 253.4 220.937 253.293 221.246 253.08C221.566 252.856 221.817 252.579 221.998 252.248L223.742 253.112ZM221.838 250.072C221.827 249.933 221.779 249.779 221.694 249.608C221.619 249.437 221.502 249.277 221.342 249.128C221.193 248.979 221.001 248.856 220.766 248.76C220.542 248.664 220.27 248.616 219.95 248.616C219.502 248.616 219.107 248.744 218.766 249C218.425 249.256 218.185 249.613 218.046 250.072H221.838Z" fill="white" fill-opacity="0.82"/>
<path d="M122.93 180.408H124.814L128.27 186.168H128.366L128.27 184.512V180.408H129.878V189H128.174L124.526 182.916H124.43L124.526 184.572V189H122.93V180.408ZM134.194 182.928C134.65 182.928 135.066 183.008 135.442 183.168C135.826 183.32 136.154 183.536 136.426 183.816C136.706 184.088 136.922 184.416 137.074 184.8C137.234 185.184 137.314 185.604 137.314 186.06C137.314 186.516 137.234 186.936 137.074 187.32C136.922 187.704 136.706 188.036 136.426 188.316C136.154 188.588 135.826 188.804 135.442 188.964C135.066 189.116 134.65 189.192 134.194 189.192C133.738 189.192 133.318 189.116 132.934 188.964C132.558 188.804 132.23 188.588 131.95 188.316C131.678 188.036 131.462 187.704 131.302 187.32C131.15 186.936 131.074 186.516 131.074 186.06C131.074 185.604 131.15 185.184 131.302 184.8C131.462 184.416 131.678 184.088 131.95 183.816C132.23 183.536 132.558 183.32 132.934 183.168C133.318 183.008 133.738 182.928 134.194 182.928ZM134.194 187.74C134.394 187.74 134.586 187.704 134.77 187.632C134.962 187.552 135.13 187.44 135.274 187.296C135.418 187.152 135.53 186.976 135.61 186.768C135.698 186.56 135.742 186.324 135.742 186.06C135.742 185.796 135.698 185.56 135.61 185.352C135.53 185.144 135.418 184.968 135.274 184.824C135.13 184.68 134.962 184.572 134.77 184.5C134.586 184.42 134.394 184.38 134.194 184.38C133.986 184.38 133.79 184.42 133.606 184.5C133.422 184.572 133.258 184.68 133.114 184.824C132.97 184.968 132.854 185.144 132.766 185.352C132.686 185.56 132.646 185.796 132.646 186.06C132.646 186.324 132.686 186.56 132.766 186.768C132.854 186.976 132.97 187.152 133.114 187.296C133.258 187.44 133.422 187.552 133.606 187.632C133.79 187.704 133.986 187.74 134.194 187.74ZM138.797 184.464H137.765V183.12H138.797V181.32H140.369V183.12H141.809V184.464H140.369V186.744C140.369 186.88 140.381 187.008 140.405 187.128C140.437 187.24 140.493 187.336 140.573 187.416C140.685 187.544 140.845 187.608 141.053 187.608C141.189 187.608 141.297 187.596 141.377 187.572C141.457 187.54 141.533 187.5 141.605 187.452L142.049 188.832C141.865 188.92 141.665 188.984 141.449 189.024C141.241 189.072 141.009 189.096 140.753 189.096C140.457 189.096 140.189 189.052 139.949 188.964C139.717 188.868 139.521 188.74 139.361 188.58C138.985 188.22 138.797 187.708 138.797 187.044V184.464ZM148.271 180.312C148.495 180.312 148.703 180.332 148.895 180.372C149.087 180.412 149.259 180.464 149.411 180.528L148.967 181.932C148.887 181.892 148.799 181.86 148.703 181.836C148.615 181.812 148.503 181.8 148.367 181.8C148.135 181.8 147.951 181.876 147.815 182.028C147.679 182.172 147.611 182.376 147.611 182.64V183.12H149.075V184.464H147.611V189H146.039V184.464H144.983V183.12H146.039V182.544C146.039 182.184 146.091 181.868 146.195 181.596C146.307 181.316 146.463 181.084 146.663 180.9C146.863 180.708 147.099 180.564 147.371 180.468C147.643 180.364 147.943 180.312 148.271 180.312ZM152.558 182.928C153.014 182.928 153.43 183.008 153.806 183.168C154.19 183.32 154.518 183.536 154.79 183.816C155.07 184.088 155.286 184.416 155.438 184.8C155.598 185.184 155.678 185.604 155.678 186.06C155.678 186.516 155.598 186.936 155.438 187.32C155.286 187.704 155.07 188.036 154.79 188.316C154.518 188.588 154.19 188.804 153.806 188.964C153.43 189.116 153.014 189.192 152.558 189.192C152.102 189.192 151.682 189.116 151.298 188.964C150.922 188.804 150.594 188.588 150.314 188.316C150.042 188.036 149.826 187.704 149.666 187.32C149.514 186.936 149.438 186.516 149.438 186.06C149.438 185.604 149.514 185.184 149.666 184.8C149.826 184.416 150.042 184.088 150.314 183.816C150.594 183.536 150.922 183.32 151.298 183.168C151.682 183.008 152.102 182.928 152.558 182.928ZM152.558 187.74C152.758 187.74 152.95 187.704 153.134 187.632C153.326 187.552 153.494 187.44 153.638 187.296C153.782 187.152 153.894 186.976 153.974 186.768C154.062 186.56 154.106 186.324 154.106 186.06C154.106 185.796 154.062 185.56 153.974 185.352C153.894 185.144 153.782 184.968 153.638 184.824C153.494 184.68 153.326 184.572 153.134 184.5C152.95 184.42 152.758 184.38 152.558 184.38C152.35 184.38 152.154 184.42 151.97 184.5C151.786 184.572 151.622 184.68 151.478 184.824C151.334 184.968 151.218 185.144 151.13 185.352C151.05 185.56 151.01 185.796 151.01 186.06C151.01 186.324 151.05 186.56 151.13 186.768C151.218 186.976 151.334 187.152 151.478 187.296C151.622 187.44 151.786 187.552 151.97 187.632C152.154 187.704 152.35 187.74 152.558 187.74ZM160.697 188.232H160.601C160.417 188.528 160.169 188.764 159.857 188.94C159.545 189.108 159.189 189.192 158.789 189.192C158.045 189.192 157.489 188.964 157.121 188.508C156.761 188.052 156.581 187.444 156.581 186.684V183.12H158.153V186.492C158.153 186.916 158.245 187.232 158.429 187.44C158.621 187.64 158.897 187.74 159.257 187.74C159.473 187.74 159.661 187.696 159.821 187.608C159.989 187.512 160.129 187.388 160.241 187.236C160.361 187.076 160.449 186.892 160.505 186.684C160.569 186.468 160.601 186.24 160.601 186V183.12H162.173V189H160.697V188.232ZM164.996 183.888H165.092C165.276 183.592 165.524 183.36 165.836 183.192C166.148 183.016 166.504 182.928 166.904 182.928C167.272 182.928 167.596 182.988 167.876 183.108C168.156 183.228 168.384 183.4 168.56 183.624C168.744 183.84 168.88 184.104 168.968 184.416C169.064 184.72 169.112 185.06 169.112 185.436V189H167.54V185.628C167.54 185.204 167.444 184.892 167.252 184.692C167.068 184.484 166.796 184.38 166.436 184.38C166.22 184.38 166.028 184.428 165.86 184.524C165.7 184.612 165.56 184.736 165.44 184.896C165.328 185.048 165.24 185.232 165.176 185.448C165.12 185.656 165.092 185.88 165.092 186.12V189H163.52V183.12H164.996V183.888ZM174.79 188.292H174.694C174.55 188.54 174.326 188.752 174.022 188.928C173.718 189.104 173.342 189.192 172.894 189.192C172.518 189.192 172.158 189.116 171.814 188.964C171.478 188.804 171.178 188.588 170.914 188.316C170.658 188.036 170.454 187.704 170.302 187.32C170.15 186.936 170.074 186.516 170.074 186.06C170.074 185.604 170.15 185.184 170.302 184.8C170.454 184.416 170.658 184.088 170.914 183.816C171.178 183.536 171.478 183.32 171.814 183.168C172.158 183.008 172.518 182.928 172.894 182.928C173.342 182.928 173.718 183.016 174.022 183.192C174.326 183.368 174.55 183.58 174.694 183.828H174.79L174.694 182.988V180.408H176.266V189H174.79V188.292ZM173.218 187.74C173.426 187.74 173.622 187.704 173.806 187.632C173.998 187.552 174.166 187.44 174.31 187.296C174.454 187.152 174.57 186.976 174.658 186.768C174.746 186.56 174.79 186.324 174.79 186.06C174.79 185.796 174.746 185.56 174.658 185.352C174.57 185.144 174.454 184.968 174.31 184.824C174.166 184.68 173.998 184.572 173.806 184.5C173.622 184.42 173.426 184.38 173.218 184.38C173.01 184.38 172.81 184.42 172.618 184.5C172.434 184.58 172.27 184.692 172.126 184.836C171.982 184.98 171.866 185.156 171.778 185.364C171.69 185.572 171.646 185.804 171.646 186.06C171.646 186.316 171.69 186.548 171.778 186.756C171.866 186.964 171.982 187.14 172.126 187.284C172.27 187.428 172.434 187.54 172.618 187.62C172.81 187.7 173.01 187.74 173.218 187.74Z" fill="white" fill-opacity="0.71"/>
<path d="M222.098 168V155.904H191.762V145.728L220.946 102.336H234.578V144.192H242.834V155.904H234.578V168H222.098ZM222.098 121.056H221.33L205.682 144.192H222.098V121.056Z" fill="white" fill-opacity="0.85"/>
<path d="M149.492 170.304C143.156 170.304 137.444 169.008 132.356 166.416C127.268 163.728 122.9 160.08 119.252 155.472C115.7 150.864 112.964 145.44 111.044 139.2C109.124 132.864 108.164 126.048 108.164 118.752C108.164 111.456 109.124 104.688 111.044 98.448C112.964 92.112 115.7 86.64 119.252 82.032C122.9 77.424 127.268 73.824 132.356 71.232C137.444 68.544 143.156 67.2 149.492 67.2C155.828 67.2 161.54 68.544 166.628 71.232C171.716 73.824 176.036 77.424 179.588 82.032C183.236 86.64 186.02 92.112 187.94 98.448C189.86 104.688 190.82 111.456 190.82 118.752C190.82 126.048 189.86 132.864 187.94 139.2C186.02 145.44 183.236 150.864 179.588 155.472C176.036 160.08 171.716 163.728 166.628 166.416C161.54 169.008 155.828 170.304 149.492 170.304ZM149.492 152.448C152.948 152.448 156.068 151.632 158.852 150C161.636 148.272 163.988 145.92 165.908 142.944C167.924 139.872 169.412 136.272 170.372 132.144C171.428 128.016 171.956 123.552 171.956 118.752C171.956 113.856 171.428 109.392 170.372 105.36C169.412 101.232 167.924 97.68 165.908 94.704C163.988 91.632 161.636 89.28 158.852 87.648C156.068 85.92 152.948 85.056 149.492 85.056C145.94 85.056 142.772 85.92 139.988 87.648C137.204 89.28 134.852 91.632 132.932 94.704C131.012 97.68 129.524 101.232 128.468 105.36C127.508 109.392 127.028 113.856 127.028 118.752C127.028 123.552 127.508 128.016 128.468 132.144C129.524 136.272 131.012 139.872 132.932 142.944C134.852 145.92 137.204 148.272 139.988 150C142.772 151.632 145.94 152.448 149.492 152.448Z" fill="white" fill-opacity="0.85"/>
<path d="M86.0979 168V155.904H55.7619V145.728L84.9459 102.336H98.5779V144.192H106.834V155.904H98.5779V168H86.0979ZM86.0979 121.056H85.3299L69.6819 144.192H86.0979V121.056Z" fill="white" fill-opacity="0.85"/>
</svg>
