<svg width="188" height="377" viewBox="0 0 188 377" fill="none" xmlns="http://www.w3.org/2000/svg">
<line y1="-7.5" x2="57.3077" y2="-7.5" transform="matrix(0.693307 0.720642 -0.653545 0.756888 5 337.296)" stroke="#D6B625" stroke-width="15"/>
<line y1="-7.5" x2="57.5949" y2="-7.5" transform="matrix(0.653521 -0.756909 0.69333 0.72062 44.7324 378.594)" stroke="#D6B625" stroke-width="15"/>
<path d="M44 357L44 102C44 49.533 86.5329 7.00002 139 7.00002H188" stroke="#D6B625" stroke-width="14"/>
<path d="M44 253C57.0068 253 67 262.922 67 274.5C67 286.078 57.0068 296 44 296C30.9932 296 21 286.078 21 274.5C21 262.922 30.9932 253 44 253Z" fill="#444444" stroke="#D6B625" stroke-width="12"/>
<path d="M43.5 135C64.4799 135 81 151.157 81 170.5C81 189.843 64.4799 206 43.5 206C22.5201 206 6 189.843 6 170.5C6 151.157 22.5201 135 43.5 135Z" fill="#444444" stroke="#D6B625" stroke-width="12"/>
</svg>
