<svg width="210" height="389" viewBox="0 0 210 389" fill="none" xmlns="http://www.w3.org/2000/svg">
<path d="M166 0V255C166 307.467 123.468 350 71.0005 350H22.0005" stroke="#D6B625" stroke-width="14"/>
<line y1="-7.5" x2="57.3077" y2="-7.5" transform="matrix(-0.720642 0.693307 -0.756888 -0.653545 41.2983 311)" stroke="#D6B625" stroke-width="15"/>
<line y1="-7.5" x2="57.5949" y2="-7.5" transform="matrix(0.756909 0.653521 -0.72062 0.69333 0 350.732)" stroke="#D6B625" stroke-width="15"/>
<path d="M166.5 124C147.043 124 132 109.055 132 91.5C132 73.9452 147.043 59 166.5 59C185.958 59 201 73.9452 201 91.5C201 109.055 185.958 124 166.5 124Z" fill="#444444" stroke="#D6B625" stroke-width="18"/>
<path d="M166 216.5C153.244 216.5 143.5 206.777 143.5 195.5C143.5 184.223 153.244 174.5 166 174.5C178.756 174.5 188.5 184.223 188.5 195.5C188.5 206.777 178.756 216.5 166 216.5Z" fill="#444444" stroke="#D6B625" stroke-width="13"/>
</svg>
