<svg width="1440" height="720" viewBox="0 0 1440 720" fill="none" xmlns="http://www.w3.org/2000/svg">
<g clip-path="url(#clip0)">
<rect width="1440" height="720" fill="#444444"/>
<path d="M1190 0V255C1190 307.467 1147.47 350 1095 350H1046" stroke="#D6B625" stroke-width="20"/>
<line y1="-10.5" x2="57.3077" y2="-10.5" transform="matrix(-0.720642 0.693307 -0.756888 -0.653545 1065.3 311)" stroke="#D6B625" stroke-width="21"/>
<line y1="-10.5" x2="57.5949" y2="-10.5" transform="matrix(0.756909 0.653521 -0.72062 0.69333 1024 350.732)" stroke="#D6B625" stroke-width="21"/>
<path d="M1190.5 124C1171.04 124 1156 109.055 1156 91.5C1156 73.9452 1171.04 59 1190.5 59C1209.96 59 1225 73.9452 1225 91.5C1225 109.055 1209.96 124 1190.5 124Z" fill="#444444" stroke="#D6B625" stroke-width="18"/>
<path d="M1190 216.5C1177.24 216.5 1167.5 206.777 1167.5 195.5C1167.5 184.223 1177.24 174.5 1190 174.5C1202.76 174.5 1212.5 184.223 1212.5 195.5C1212.5 206.777 1202.76 216.5 1190 216.5Z" fill="#444444" stroke="#D6B625" stroke-width="13"/>
<path d="M276 700V445C276 392.533 318.533 350 371 350H420" stroke="#D6B625" stroke-width="20"/>
<path d="M276 596.5C288.756 596.5 298.5 606.223 298.5 617.5C298.5 628.777 288.756 638.5 276 638.5C263.244 638.5 253.5 628.777 253.5 617.5C253.5 606.223 263.244 596.5 276 596.5Z" fill="#444444" stroke="#D6B625" stroke-width="13"/>
<path d="M275.5 481C294.958 481 310 495.945 310 513.5C310 531.055 294.958 546 275.5 546C256.042 546 241 531.055 241 513.5C241 495.945 256.042 481 275.5 481Z" fill="#444444" stroke="#D6B625" stroke-width="18"/>
<line y1="-10.5" x2="57.3077" y2="-10.5" transform="matrix(0.693307 0.720642 -0.653545 0.756888 237 680.296)" stroke="#D6B625" stroke-width="21"/>
<line y1="-10.5" x2="57.5949" y2="-10.5" transform="matrix(0.653521 -0.756909 0.69333 0.72062 276.732 721.594)" stroke="#D6B625" stroke-width="21"/>
</g>
<defs>
<clipPath id="clip0">
<rect width="1440" height="720" fill="white"/>
</clipPath>
</defs>
</svg>
