<svg width="379" height="381" viewBox="0 0 379 381" fill="none" xmlns="http://www.w3.org/2000/svg">
<g filter="url(#filter0_d)">
<path d="M111 265H269V302.25V339.5V376.75L190 339.5L111 376.75V302.25V265Z" fill="#9A9992"/>
</g>
<g filter="url(#filter1_d)">
<circle cx="189.515" cy="188.849" r="133" transform="rotate(-44.4 189.515 188.849)" fill="#ECF1F1"/>
<circle cx="189.515" cy="188.849" r="107.5" transform="rotate(-44.4 189.515 188.849)" fill="#ECF1F1" stroke="#696864" stroke-width="17"/>
</g>
<path d="M95 282.111L285.05 96C344 163.5 324.5 241.5 283.51 284.207C221 337.5 145.5 332 95 282.111Z" fill="black" fill-opacity="0.1"/>
<g filter="url(#filter2_d)">
<path d="M188.205 137.649C188.938 136.159 191.062 136.159 191.795 137.649L205.666 165.85C205.958 166.442 206.522 166.853 207.176 166.947L238.284 171.425C239.927 171.661 240.583 173.681 239.393 174.838L216.858 196.746C216.385 197.206 216.169 197.87 216.281 198.52L221.635 229.489C221.918 231.125 220.2 232.374 218.732 231.599L190.933 216.937C190.349 216.629 189.651 216.629 189.067 216.937L161.268 231.599C159.8 232.374 158.082 231.125 158.364 229.489L163.719 198.52C163.831 197.87 163.615 197.206 163.142 196.746L140.607 174.838C139.417 173.681 140.073 171.661 141.716 171.425L172.824 166.947C173.478 166.853 174.042 166.442 174.334 165.85L188.205 137.649Z" fill="#696864"/>
</g>
<defs>
<filter id="filter0_d" x="109" y="265" width="162" height="115.75" filterUnits="userSpaceOnUse" color-interpolation-filters="sRGB">
<feFlood flood-opacity="0" result="BackgroundImageFix"/>
<feColorMatrix in="SourceAlpha" type="matrix" values="0 0 0 0 0 0 0 0 0 0 0 0 0 0 0 0 0 0 127 0"/>
<feOffset dy="2"/>
<feGaussianBlur stdDeviation="1"/>
<feColorMatrix type="matrix" values="0 0 0 0 0 0 0 0 0 0 0 0 0 0 0 0 0 0 0.25 0"/>
<feBlend mode="normal" in2="BackgroundImageFix" result="effect1_dropShadow"/>
<feBlend mode="normal" in="SourceGraphic" in2="effect1_dropShadow" result="shape"/>
</filter>
<filter id="filter1_d" x="0.435028" y="0.768677" width="378.16" height="379.16" filterUnits="userSpaceOnUse" color-interpolation-filters="sRGB">
<feFlood flood-opacity="0" result="BackgroundImageFix"/>
<feColorMatrix in="SourceAlpha" type="matrix" values="0 0 0 0 0 0 0 0 0 0 0 0 0 0 0 0 0 0 127 0"/>
<feOffset dy="2"/>
<feGaussianBlur stdDeviation="0.5"/>
<feColorMatrix type="matrix" values="0 0 0 0 0 0 0 0 0 0 0 0 0 0 0 0 0 0 0.25 0"/>
<feBlend mode="normal" in2="BackgroundImageFix" result="effect1_dropShadow"/>
<feBlend mode="normal" in="SourceGraphic" in2="effect1_dropShadow" result="shape"/>
</filter>
<filter id="filter2_d" x="136.999" y="133.531" width="108.001" height="103.303" filterUnits="userSpaceOnUse" color-interpolation-filters="sRGB">
<feFlood flood-opacity="0" result="BackgroundImageFix"/>
<feColorMatrix in="SourceAlpha" type="matrix" values="0 0 0 0 0 0 0 0 0 0 0 0 0 0 0 0 0 0 127 0"/>
<feOffset dx="1" dy="1"/>
<feGaussianBlur stdDeviation="2"/>
<feColorMatrix type="matrix" values="0 0 0 0 0 0 0 0 0 0 0 0 0 0 0 0 0 0 0.07 0"/>
<feBlend mode="normal" in2="BackgroundImageFix" result="effect1_dropShadow"/>
<feBlend mode="normal" in="SourceGraphic" in2="effect1_dropShadow" result="shape"/>
</filter>
</defs>
</svg>
